<?xml version="1.0" encoding="UTF-8"?>
<svg width="111px" height="49px" viewBox="0 0 111 49" version="1.1" xmlns="http://www.w3.org/2000/svg" xmlns:xlink="http://www.w3.org/1999/xlink">
    <!-- Generator: Sketch 52.2 (67145) - http://www.bohemiancoding.com/sketch -->
    <title>Group 22</title>
    <desc>Created with Sketch.</desc>
    <defs>
        <polygon id="path-1" points="0.8137 0.7295 9.028 0.7295 9.028 11.3545 0.8137 11.3545"></polygon>
    </defs>
    <g id="latest" stroke="none" stroke-width="1" fill="none" fill-rule="evenodd">
        <g id="Prim_sec_selector-Copy-4" transform="translate(-410.000000, -488.000000)">
            <g id="Group-22" transform="translate(410.000000, 488.000000)">
                <polygon id="Fill-1" fill="#EB008B" points="19.357 33.8766 24.196 33.8766 24.196 29.0366 19.357 29.0366"></polygon>
                <polygon id="Fill-2" fill="#EB008B" points="24.196 38.7146 29.036 38.7146 29.036 33.8756 24.196 33.8756"></polygon>
                <polygon id="Fill-3" fill="#00A99E" points="14.519 48.3946 24.199 48.3946 24.199 38.7146 14.519 38.7146"></polygon>
                <polygon id="Fill-4" fill="#008ACD" points="0 38.7146 14.519 38.7146 14.519 24.1966 0 24.1966"></polygon>
                <polygon id="Fill-5" fill="#F5B01A" points="14.519 24.1976 38.669 24.1976 38.669 0.0006 14.519 0.0006"></polygon>
                <g id="Group-21" transform="translate(48.000000, 22.394600)">
                    <path d="M3.8008,3.4082 L2.5728,3.4082 L2.5728,9.6292 L3.9328,9.6292 C6.1238,9.6292 7.0648,8.2932 7.0648,6.3872 C7.0648,4.5912 5.9698,3.4082 3.8008,3.4082 M3.7798,11.0752 L2.5728,11.0752 L2.5728,16.3542 L0.9758,16.3542 L0.9758,1.9182 L3.9328,1.9182 C6.9338,1.9182 8.7958,3.5602 8.7958,6.4082 C8.7958,8.8622 7.2838,11.0752 3.7798,11.0752" id="Fill-6" fill="#6B737D"></path>
                    <path d="M12.6953,16.5742 C11.4253,16.5742 10.8773,15.7632 10.8773,14.6682 L10.8773,0.8442 L12.4753,0.8442 L12.4753,13.9442 C12.4753,14.9302 12.7163,15.1272 13.3313,15.1272 C13.4403,15.1272 13.6143,15.1272 13.8783,15.0622 L14.0753,16.2222 C13.5933,16.4642 13.2213,16.5742 12.6953,16.5742" id="Fill-8" fill="#6B737D"></path>
                    <path d="M21.3262,11.3818 L19.2662,11.4468 C17.4052,11.5138 16.6602,12.1488 16.6602,13.2868 C16.6602,14.3388 17.3172,15.1938 18.6762,15.1938 C20.0342,15.1938 20.8442,14.5148 21.3262,14.0098 L21.3262,11.3818 Z M21.8312,16.3548 L21.4152,15.3468 C20.7782,15.9608 19.7712,16.5738 18.2372,16.5738 C16.5512,16.5738 15.0612,15.3678 15.0612,13.3968 C15.0612,11.3598 16.4852,10.1118 19.2232,10.0238 L21.3262,9.9578 L21.3262,9.4768 C21.3262,7.7008 20.4052,7.1098 19.0922,7.1098 C17.7562,7.1098 16.9242,7.6578 16.3762,8.0738 L15.7182,6.9118 C16.9672,6.0148 18.0622,5.7298 19.3762,5.7298 C21.3482,5.7298 22.9272,6.5838 22.9272,9.2348 L22.9272,12.3898 C22.9272,15.3248 23.0122,16.0268 23.1442,16.3548 L21.8312,16.3548 Z" id="Fill-10" fill="#6B737D"></path>
                    <path d="M32.083,16.3545 L32.083,9.9795 C32.083,8.6875 31.863,7.2405 30.286,7.2405 C29.015,7.2405 27.876,8.1395 27.065,8.8625 L27.065,16.3545 L25.468,16.3545 L25.468,5.9925 L26.781,5.9925 L27.001,7.2185 C28.227,6.3215 29.257,5.7295 30.702,5.7295 C32.192,5.7295 33.681,6.8025 33.681,9.3885 L33.681,16.3545 L32.083,16.3545 Z" id="Fill-12" fill="#6B737D"></path>
                    <path d="M39.2246,16.5742 C37.7356,16.5742 37.0106,15.6972 37.0106,14.3612 L37.0106,7.3512 L35.3256,7.3512 L35.3256,5.9922 L37.0106,5.9922 L37.0106,3.7152 L38.6106,3.1662 L38.6106,5.9922 L41.7886,5.9922 L41.2176,7.3512 L38.6106,7.3512 L38.6106,13.8792 C38.6106,14.7562 38.9396,15.1502 39.6186,15.1502 C40.3636,15.1502 41.0426,14.7322 41.4586,14.4042 L41.9626,15.5452 C41.1966,16.1132 40.1886,16.5742 39.2246,16.5742" id="Fill-14" fill="#6B737D"></path>
                    <path d="M48.2939,17.3398 C47.0679,20.8898 45.4679,21.5468 43.7589,21.5468 C42.9039,21.5468 42.3789,21.3938 41.8739,21.1738 L42.2689,19.9258 C42.6629,20.1228 43.1459,20.2538 43.7809,20.2538 C45.0729,20.2538 46.2339,19.2248 47.0009,16.4638 L42.3349,5.9918 L44.0429,5.9918 L47.7449,14.4708 L47.8119,14.4708 L50.6379,5.9918 L52.2359,5.9918 L48.2939,17.3398 Z" id="Fill-16" fill="#6B737D"></path>
                    <g id="Group-20" transform="translate(53.000000, 5.000000)">
                        <mask id="mask-2" fill="white">
                            <use xlink:href="#path-1"></use>
                        </mask>
                        <g id="Clip-19"></g>
                        <path d="M7.4297,11.3545 L7.4297,4.9795 C7.4297,3.6875 7.2097,2.2405 5.6337,2.2405 C4.3627,2.2405 3.2237,3.1395 2.4127,3.8625 L2.4127,11.3545 L0.8137,11.3545 L0.8137,0.9925 L2.1277,0.9925 L2.3477,2.2185 C3.5747,1.3215 4.6037,0.7295 6.0497,0.7295 C7.5387,0.7295 9.0287,1.8025 9.0287,4.3885 L9.0287,11.3545 L7.4297,11.3545 Z" id="Fill-18" fill="#6B737D" mask="url(#mask-2)"></path>
                    </g>
                </g>
            </g>
        </g>
    </g>
</svg>